<svg width="1496" height="462" viewBox="0 0 1496 462" fill="none" xmlns="http://www.w3.org/2000/svg">
<path d="M1477.37 461.085C1496.5 461 1495 461 1495 444.814C1495 428.627 1495 16.2964 1495 16.2964C1495 2.83503 1478.27 -4.78869 1466.65 3.34326C1152.94 222.839 917.474 344.716 551 461.085H1477.37Z" fill="#F6F8FE"/>
<path d="M26.4568 389.407C14.7255 384.646 0 392.545 0 404.416V453C0 462.031 0 461 19.1369 461H613C498.81 440.4 108.097 422.539 26.4568 389.407Z" fill="#D2D3DE"/>
<path d="M1491.68 131.301C1496.44 128.859 1494.68 119.804 1494.68 115.467V11.5543C1486.68 -4.77479 1476.68 0.668262 1467.18 2.15246C802.448 352.698 494.09 487.326 25 392.426C491.36 511.018 779.094 498.103 1491.68 131.301Z" fill="#D2D3DE"/>
</svg>
