<svg width="1494" height="462" viewBox="0 0 1494 462" fill="none" xmlns="http://www.w3.org/2000/svg">
<path d="M1476.37 461.999C1486.11 461.999 1494 454.715 1494 445.728V17.2105C1494 3.74909 1477.27 -3.87463 1465.65 4.25732C1151.94 223.753 916.474 345.63 550 461.999H1476.37Z" fill="white"/>
<path d="M24.9784 390.405C13.2375 385.644 0 393.552 0 405.422V445.65C0 454.68 7.90331 461.999 17.6526 461.999H612C497.716 441.399 106.685 423.538 24.9784 390.405Z" fill="white"/>
<path d="M1490.68 132.215C1495.44 129.773 1493.68 120.718 1493.68 116.381V12.4684C1485.68 -3.86073 1475.68 1.58232 1466.18 3.06652C801.448 353.613 493.09 488.24 24 393.34C490.36 511.932 778.094 499.017 1490.68 132.215Z" fill="#F4F5F9"/>
</svg>
