<svg width="30" height="30" viewBox="0 0 30 30" fill="none" xmlns="http://www.w3.org/2000/svg">
<path d="M0 0H25C27.7614 0 30 2.23858 30 5V25C30 27.7614 27.7614 30 25 30H5C2.23858 30 0 27.7614 0 25V0Z" fill="url(#paint0_linear_476_443)" fill-opacity="0.1"/>
<path d="M15 15C13.9 15 12.9583 14.6083 12.175 13.825C11.3917 13.0417 11 12.1 11 11C11 9.9 11.3917 8.95833 12.175 8.175C12.9583 7.39167 13.9 7 15 7C16.1 7 17.0417 7.39167 17.825 8.175C18.6083 8.95833 19 9.9 19 11C19 12.1 18.6083 13.0417 17.825 13.825C17.0417 14.6083 16.1 15 15 15ZM7 21V20.2C7 19.6333 7.14583 19.1125 7.4375 18.6375C7.72917 18.1625 8.11667 17.8 8.6 17.55C9.63333 17.0333 10.6833 16.6458 11.75 16.3875C12.8167 16.1292 13.9 16 15 16C16.1 16 17.1833 16.1292 18.25 16.3875C19.3167 16.6458 20.3667 17.0333 21.4 17.55C21.8833 17.8 22.2708 18.1625 22.5625 18.6375C22.8542 19.1125 23 19.6333 23 20.2V21C23 21.55 22.8042 22.0208 22.4125 22.4125C22.0208 22.8042 21.55 23 21 23H9C8.45 23 7.97917 22.8042 7.5875 22.4125C7.19583 22.0208 7 21.55 7 21Z" fill="#fcfcfc"/>
<defs>
<linearGradient id="paint0_linear_476_443" x1="0" y1="15" x2="30" y2="15" gradientUnits="userSpaceOnUse">
<stop stop-color="#fff"/>
<stop offset="1" stop-color="#fff"/>
</linearGradient>
</defs>
</svg>
