<svg width="164" height="164" viewBox="0 0 164 164" fill="none" xmlns="http://www.w3.org/2000/svg">
<g clip-path="url(#clip0_2948_5407)">
<mask id="mask0_2948_5407" style="mask-type:luminance" maskUnits="userSpaceOnUse" x="0" y="0" width="164" height="164">
<path d="M164 82C164 36.7126 127.287 0 82 0C36.7126 0 0 36.7126 0 82C0 127.287 36.7126 164 82 164C127.287 164 164 127.287 164 82Z" fill="white"/>
</mask>
<g mask="url(#mask0_2948_5407)">
<path d="M163.999 81.999C163.999 36.7117 127.286 -0.000976562 81.999 -0.000976562C36.7117 -0.000976562 -0.000976562 36.7117 -0.000976562 81.999C-0.000976562 127.286 36.7117 163.999 81.999 163.999C127.286 163.999 163.999 127.286 163.999 81.999Z" fill="#54FFF5"/>
<g filter="url(#filter0_f_2948_5407)">
<path d="M8.63246 127.225C-18.7915 204.38 127.905 182.588 204.681 162.048C283.258 135.971 228.947 21.0229 172.59 18.4789C116.233 15.935 179.578 71.6306 131.706 87.5381C83.8338 103.446 42.9124 30.7806 8.63246 127.225Z" fill="white"/>
</g>
<g filter="url(#filter1_f_2948_5407)">
<path d="M54.7803 -29.3616C40.3946 -68.6663 -10.8394 -15.3786 -34.6582 16.1783C-57.3784 50.5053 1.92714 80.1688 25.1892 64.0799C48.4512 47.9906 4.97981 44.8604 18.8149 23.939C32.6501 3.01764 72.7624 19.7692 54.7803 -29.3616Z" fill="#00FFF0" fill-opacity="0.67"/>
</g>
<g filter="url(#filter2_f_2948_5407)">
<path d="M61.8066 144.406C42.1844 78.3828 -42.3345 113.152 -82.1413 138.789C-120.432 169.146 -29.5152 256.467 8.24553 252C46.0061 247.533 -22.046 209.52 1.27203 191.009C24.59 172.498 86.3337 226.934 61.8066 144.406Z" fill="#9D81FF"/>
</g>
<g filter="url(#filter3_f_2948_5407)">
<path d="M180.732 -68.7838C138.404 -119.186 77.8104 -77.5068 52.805 -50.3666C30.9241 -19.6422 143.675 36.6532 174.967 27.0055C206.259 17.3579 132.295 -2.60526 145.611 -21.3356C158.926 -40.0659 233.642 -5.77972 180.732 -68.7838Z" fill="#4D94FF"/>
</g>
<path fill-rule="evenodd" clip-rule="evenodd" d="M59.698 97.9093H87.5553L55.8668 66.0163L87.963 34.1227L96.7046 25.624H67.7896L30.9641 62.6375C29.1056 64.503 29.1152 67.5219 30.9831 69.3779L59.698 97.9093ZM76.4447 66.091L108.131 97.9817L76.0347 129.875L67.2931 138.374H96.2081L133.033 101.363C134.892 99.4974 134.882 96.4784 133.015 94.6225L104.3 66.091H76.4447Z" fill="black"/>
</g>
</g>
<defs>
<filter id="filter0_f_2948_5407" x="-80.5066" y="-67.3747" width="410.258" height="334.583" filterUnits="userSpaceOnUse" color-interpolation-filters="sRGB">
<feFlood flood-opacity="0" result="BackgroundImageFix"/>
<feBlend mode="normal" in="SourceGraphic" in2="BackgroundImageFix" result="shape"/>
<feGaussianBlur stdDeviation="42.8846" result="effect1_foregroundBlur_2948_5407"/>
</filter>
<filter id="filter1_f_2948_5407" x="-125.52" y="-129.035" width="270.626" height="283.382" filterUnits="userSpaceOnUse" color-interpolation-filters="sRGB">
<feFlood flood-opacity="0" result="BackgroundImageFix"/>
<feBlend mode="normal" in="SourceGraphic" in2="BackgroundImageFix" result="shape"/>
<feGaussianBlur stdDeviation="42.8846" result="effect1_foregroundBlur_2948_5407"/>
</filter>
<filter id="filter2_f_2948_5407" x="-177.134" y="20.635" width="330.368" height="317.299" filterUnits="userSpaceOnUse" color-interpolation-filters="sRGB">
<feFlood flood-opacity="0" result="BackgroundImageFix"/>
<feBlend mode="normal" in="SourceGraphic" in2="BackgroundImageFix" result="shape"/>
<feGaussianBlur stdDeviation="42.8846" result="effect1_foregroundBlur_2948_5407"/>
</filter>
<filter id="filter3_f_2948_5407" x="-35.7605" y="-178.22" width="320.976" height="292.092" filterUnits="userSpaceOnUse" color-interpolation-filters="sRGB">
<feFlood flood-opacity="0" result="BackgroundImageFix"/>
<feBlend mode="normal" in="SourceGraphic" in2="BackgroundImageFix" result="shape"/>
<feGaussianBlur stdDeviation="42.8846" result="effect1_foregroundBlur_2948_5407"/>
</filter>
<clipPath id="clip0_2948_5407">
<rect width="164" height="164" fill="white"/>
</clipPath>
</defs>
</svg>
