<svg width="171" height="171" viewBox="0 0 171 171" fill="none" xmlns="http://www.w3.org/2000/svg">
<g clip-path="url(#clip0_2939_5339)">
<path d="M171 0H0V171H171V0Z" fill="black"/>
<path d="M100.069 69.4258H72.4358C71.273 69.4258 70.3154 70.3834 70.3154 71.5462V99.1798C70.3154 100.343 71.273 101.3 72.4358 101.3H100.069C101.232 101.3 102.19 100.343 102.19 99.1798V71.5462C102.19 70.3834 101.232 69.4258 100.069 69.4258Z" fill="white"/>
<path d="M68.127 37.5518H40.4934C39.3306 37.5518 38.373 38.5094 38.373 39.6722V67.3058C38.373 68.4686 39.3306 69.4262 40.4934 69.4262H68.127C69.2898 69.4262 70.2474 68.4686 70.2474 67.3058V39.6722C70.2474 38.5094 69.2898 37.5518 68.127 37.5518Z" fill="white"/>
<path d="M132.013 37.5518H104.379C103.216 37.5518 102.259 38.5094 102.259 39.6722V67.3058C102.259 68.4686 103.216 69.4262 104.379 69.4262H132.013C133.176 69.4262 134.133 68.4686 134.133 67.3058V39.6722C134.133 38.5094 133.176 37.5518 132.013 37.5518Z" fill="white"/>
<path d="M68.127 101.369H40.4934C39.3306 101.369 38.373 102.327 38.373 103.49V131.123C38.373 132.286 39.3306 133.244 40.4934 133.244H68.127C69.2898 133.244 70.2474 132.286 70.2474 131.123V103.49C70.2474 102.327 69.2898 101.369 68.127 101.369Z" fill="white"/>
<path d="M132.013 101.369H104.379C103.216 101.369 102.259 102.327 102.259 103.49V131.123C102.259 132.286 103.216 133.244 104.379 133.244H132.013C133.176 133.244 134.133 132.286 134.133 131.123V103.49C134.133 102.327 133.176 101.369 132.013 101.369Z" fill="white"/>
</g>
<defs>
<clipPath id="clip0_2939_5339">
<rect width="171" height="171" rx="85.5" fill="white"/>
</clipPath>
</defs>
</svg>
